{"glyphs":{":":{"x_min":0,"x_max":267,"ha":267,"o":"m 54 55 q 54 85 76 108 q 97 130 134 130 q 166 130 190 112 q 213 93 213 61 q 213 30 190 10 q 168 -11 131 -11 q 99 -11 76 6 q 54 23 54 55 z m 54 425 q 54 455 76 478 q 97 500 134 500 q 166 500 190 482 q 213 463 213 431 q 213 400 190 380 q 168 359 131 359 q 99 359 76 376 q 54 393 54 425 z"},"$":{"x_min":0,"x_max":556,"ha":556,"o":"m 326 797 q 324 777 323 755 q 322 733 321 711 q 368 709 406 702 q 444 695 476 687 l 476 581 q 434 593 394 602 q 353 610 315 612 q 314 577 314 525 q 314 473 314 403 q 353 392 391 378 q 429 363 459 340 q 489 316 508 281 q 527 246 527 196 q 527 149 512 112 q 496 76 468 50 q 441 25 402 10 q 364 -6 318 -10 l 322 -131 l 235 -128 l 239 -11 q 195 -8 147 2 q 99 12 52 29 l 48 142 q 63 134 86 126 q 108 119 134 112 q 161 105 189 100 q 217 95 244 93 l 244 305 q 196 320 158 336 q 120 351 93 373 q 66 395 52 426 q 37 458 37 505 q 37 557 55 594 q 73 630 102 654 q 130 677 166 690 q 202 702 239 707 l 236 787 z m 401 188 q 401 224 376 246 q 352 267 314 281 l 314 94 q 401 109 401 188 z m 156 516 q 156 498 164 484 q 171 469 183 458 q 195 447 211 438 q 227 430 244 424 l 244 608 q 198 598 177 573 q 156 548 156 516 z"},"?":{"x_min":0,"x_max":447,"ha":447,"o":"m 156 54 q 156 84 178 106 q 199 129 237 129 q 269 129 292 110 q 315 92 315 60 q 315 29 292 8 q 270 -12 233 -12 q 201 -12 178 5 q 156 22 156 54 z m 291 318 q 288 285 287 255 q 286 225 286 198 l 183 198 q 183 215 184 229 q 184 243 184 255 q 184 277 183 296 q 182 316 180 345 q 207 368 228 388 q 249 408 262 428 q 276 449 283 472 q 290 494 290 523 q 290 575 271 598 q 252 621 226 621 q 192 621 170 587 q 147 553 147 479 l 29 472 q 29 547 48 593 q 68 639 98 665 q 128 691 164 700 q 200 709 232 709 q 283 709 318 692 q 352 676 372 650 q 393 623 402 589 q 411 555 411 520 q 411 487 404 460 q 397 434 382 411 q 367 388 344 366 q 322 343 291 318 z"},"<":{"x_min":0,"x_max":453,"ha":453,"o":"m 405 540 q 380 522 358 505 q 335 488 306 464 q 278 441 240 408 q 203 375 148 324 q 189 285 224 254 q 260 222 292 196 q 323 169 351 146 q 379 123 406 100 l 258 100 q 238 119 218 138 q 199 156 172 180 q 146 204 111 238 q 76 273 26 326 q 75 375 110 408 q 145 441 172 464 q 198 487 218 504 q 237 522 255 540 z"},"'":{"x_min":0,"x_max":190,"ha":190,"o":"m 149 760 l 127 511 l 58 516 l 47 770 z"},"=":{"x_min":0,"x_max":500,"ha":500,"o":"m 437 309 q 389 311 342 312 q 295 313 247 313 q 199 313 152 312 q 105 311 57 309 l 62 401 q 110 399 157 398 q 204 397 252 397 q 300 397 348 398 q 395 399 443 401 z m 437 97 q 389 99 342 100 q 295 101 247 101 q 199 101 152 100 q 105 99 57 97 l 62 189 q 110 187 157 186 q 204 185 252 185 q 300 185 348 186 q 395 187 443 189 z"},"a":{"x_min":0,"x_max":482,"ha":482,"o":"m 165 -12 q 102 -12 64 31 q 25 74 25 143 q 25 215 67 258 q 109 301 179 301 q 208 301 237 293 q 266 285 289 270 l 289 326 q 289 373 271 392 q 253 411 209 411 q 179 411 146 404 q 112 396 92 385 l 61 481 q 76 487 97 493 q 118 499 142 503 q 166 507 191 510 q 216 512 237 512 q 413 512 413 340 q 413 325 412 296 q 410 267 408 236 q 407 204 406 177 q 404 150 404 139 q 404 116 411 106 q 418 96 437 96 q 450 96 467 100 l 451 4 q 435 -1 422 -4 q 408 -7 394 -7 q 357 -7 332 14 q 307 34 302 72 q 282 33 246 10 q 210 -12 165 -12 z m 213 80 q 245 80 268 103 q 290 126 290 161 q 290 191 272 209 q 254 227 222 227 q 189 227 170 207 q 151 187 151 152 q 151 119 168 100 q 184 80 213 80 z"},"L":{"x_min":0,"x_max":482,"ha":482,"o":"m 471 0 l 71 0 q 72 48 74 84 q 75 121 76 160 q 77 200 78 251 q 79 302 79 379 q 79 456 78 532 q 77 609 74 690 l 217 700 q 214 668 212 634 q 211 601 210 560 q 210 520 210 470 q 209 420 209 356 q 209 274 209 213 q 209 152 210 98 l 471 98 z"},"3":{"x_min":0,"x_max":509,"ha":509,"o":"m 247 70 q 299 70 318 104 q 337 138 337 196 q 337 234 330 258 q 322 283 306 297 q 289 311 262 316 q 234 321 195 321 l 185 402 q 228 402 254 410 q 281 417 296 431 q 310 445 314 465 q 319 485 319 510 q 319 563 302 594 q 286 626 245 626 q 204 626 185 596 q 166 566 166 520 l 53 508 q 53 565 71 604 q 89 642 118 666 q 148 690 184 700 q 220 711 256 711 q 303 711 338 696 q 373 680 396 654 q 419 628 430 594 q 442 561 442 526 q 442 499 436 473 q 429 447 416 425 q 402 403 382 386 q 361 370 333 361 q 404 351 436 304 q 468 257 468 188 q 468 137 452 100 q 436 62 406 37 q 377 12 336 0 q 294 -12 242 -12 q 208 -12 172 -5 q 136 2 106 25 q 77 48 58 91 q 39 134 39 205 l 154 218 q 154 138 176 104 q 199 70 247 70 z"},";":{"x_min":0,"x_max":264,"ha":264,"o":"m 52 50 q 59 82 80 104 q 102 125 132 130 q 210 109 210 44 q 210 -40 101 -163 l 55 -127 q 81 -85 92 -61 q 102 -37 102 -14 q 102 36 52 50 z m 52 425 q 52 455 74 478 q 95 500 132 500 q 164 500 188 482 q 211 463 211 431 q 211 400 188 380 q 166 359 129 359 q 97 359 74 376 q 52 393 52 425 z"},"J":{"x_min":0,"x_max":282,"ha":282,"o":"m 79 505 q 79 555 78 597 q 76 639 74 690 l 217 700 q 213 655 212 614 q 210 574 210 542 q 210 491 209 438 q 208 384 207 332 q 206 280 204 231 q 202 182 200 140 q 198 101 195 72 q 192 43 188 22 q 184 0 179 -16 q 174 -31 168 -43 q 148 -85 114 -110 q 81 -134 41 -147 l -35 -50 q -8 -47 14 -36 q 35 -24 50 -2 q 64 21 72 56 q 79 91 79 142 z"},"V":{"x_min":0,"x_max":628,"ha":628,"o":"m 608 712 q 584 611 558 518 q 533 426 505 339 q 477 252 446 168 q 414 84 377 0 l 252 -12 q 215 70 184 154 q 152 237 124 324 q 96 412 70 505 q 45 598 21 700 l 157 712 q 192 563 228 409 q 264 255 314 113 q 339 182 360 252 q 382 321 400 394 q 419 467 436 543 q 454 619 471 700 z"},"\"":{"x_min":0,"x_max":356,"ha":356,"o":"m 149 760 l 127 511 l 58 516 l 47 770 z m 315 760 l 293 511 l 224 516 l 213 770 z"},"7":{"x_min":0,"x_max":431,"ha":431,"o":"m 417 644 q 390 581 364 501 q 339 421 316 335 q 292 249 270 162 q 249 76 230 0 l 82 0 q 109 67 138 144 q 166 220 192 300 q 219 379 242 458 q 264 537 278 609 l 30 609 l 21 712 q 37 710 74 708 q 111 706 157 704 q 203 702 251 701 q 299 700 338 700 l 408 700 z"},"S":{"x_min":0,"x_max":559,"ha":559,"o":"m 271 102 q 334 102 364 124 q 395 146 395 188 q 395 214 384 232 q 373 250 354 263 q 336 276 312 286 q 287 295 261 304 q 213 320 174 336 q 136 352 108 374 q 81 395 66 426 q 51 458 51 505 q 51 570 78 610 q 104 651 144 674 q 184 696 232 704 q 279 711 320 711 q 372 711 418 703 q 465 695 500 687 l 500 571 q 452 585 401 594 q 350 603 308 603 q 236 603 203 578 q 170 552 170 516 q 170 489 186 471 q 201 453 224 440 q 246 427 272 420 q 297 412 318 406 q 354 396 390 382 q 426 367 456 343 q 485 319 503 284 q 521 248 521 196 q 521 144 502 105 q 484 66 450 40 q 417 14 371 1 q 325 -12 270 -12 q 222 -12 162 -2 q 103 8 46 29 l 42 152 q 60 143 87 134 q 114 126 146 118 q 177 111 210 106 q 242 102 271 102 z"},"}":{"x_min":0,"x_max":373,"ha":373,"o":"m 273 522 q 273 486 276 464 q 278 441 284 428 q 290 414 300 409 q 310 404 324 404 l 356 404 l 356 326 l 328 326 q 313 326 302 322 q 292 317 286 304 q 279 292 276 268 q 273 245 273 208 l 273 112 q 273 48 262 6 q 250 -37 230 -62 q 209 -87 182 -98 q 156 -108 126 -108 q 103 -108 74 -100 q 45 -93 20 -77 l 31 -8 q 54 -18 76 -24 q 99 -30 118 -30 q 128 -30 136 -25 q 145 -20 151 -6 q 157 7 160 32 q 163 57 163 98 l 163 194 q 163 226 167 251 q 171 276 179 296 q 187 317 198 334 q 210 350 225 365 q 210 380 198 396 q 187 413 179 434 q 171 454 167 479 q 163 504 163 536 l 163 614 q 163 654 160 680 q 157 705 151 718 q 145 732 136 737 q 128 742 118 742 q 99 742 76 736 q 54 729 31 720 l 20 789 q 45 805 74 812 q 103 820 126 820 q 156 820 182 810 q 209 799 230 774 q 250 749 262 706 q 273 664 273 600 z"},"Z":{"x_min":0,"x_max":545,"ha":545,"o":"m 511 644 q 483 604 445 540 q 407 475 365 400 q 323 325 282 246 q 240 168 206 100 l 515 100 l 505 -12 q 490 -10 450 -8 q 410 -5 356 -4 q 303 -2 244 -1 q 185 0 133 0 l 29 0 l 18 68 q 50 113 89 174 q 128 236 170 307 q 212 378 254 454 q 295 529 332 601 l 54 601 l 45 712 q 64 710 110 708 q 155 706 212 704 q 268 702 327 701 q 386 700 432 700 l 502 700 z"},"x":{"x_min":0,"x_max":496,"ha":496,"o":"m 487 500 q 469 477 454 456 q 438 435 420 408 q 401 382 376 345 q 352 308 315 254 q 343 213 366 178 q 389 144 410 114 q 430 83 449 56 q 468 28 488 0 l 345 0 q 331 24 319 45 q 307 66 296 86 q 285 107 274 127 q 262 147 249 170 q 220 123 196 82 q 172 41 149 0 l 6 0 q 29 33 48 60 q 67 87 86 115 q 106 143 128 176 q 151 209 183 256 q 141 317 100 376 q 60 436 13 500 l 158 500 q 167 481 176 464 q 185 447 196 428 q 206 410 219 388 q 232 367 249 339 q 274 380 295 418 q 316 455 342 500 z"},")":{"x_min":0,"x_max":300,"ha":300,"o":"m 14 -67 q 35 -53 57 -26 q 79 1 97 49 q 115 97 126 170 q 138 243 138 349 q 138 452 127 524 q 116 597 98 646 q 80 694 58 722 q 36 749 14 764 l 53 810 q 78 793 114 765 q 151 737 184 686 q 218 634 242 552 q 265 469 265 344 q 265 219 242 137 q 218 55 184 4 q 151 -46 114 -72 q 78 -98 53 -112 z"},"&":{"x_min":0,"x_max":721,"ha":721,"o":"m 657 427 l 648 337 l 553 332 q 558 295 560 267 q 563 239 563 214 q 563 194 562 175 q 560 156 555 139 q 600 101 644 66 q 687 32 729 0 l 567 0 l 504 47 q 475 20 430 4 q 385 -12 318 -12 q 265 -12 218 0 q 171 11 136 36 q 100 61 80 101 q 59 141 59 199 q 59 265 85 313 q 111 361 153 398 q 131 436 119 475 q 107 514 107 553 q 107 604 126 635 q 146 666 176 684 q 205 701 238 706 q 272 712 299 712 q 363 712 416 690 l 416 586 q 393 600 360 612 q 328 623 299 623 q 288 623 274 620 q 261 618 250 610 q 238 602 230 588 q 222 574 222 552 q 222 517 242 477 q 261 437 294 394 q 327 351 372 306 q 416 260 466 215 q 466 231 464 257 q 462 283 460 310 q 457 338 454 364 q 452 391 451 409 z m 423 111 q 368 156 315 205 q 262 254 218 307 q 204 285 198 259 q 191 233 191 204 q 191 146 219 112 q 247 79 318 79 q 355 79 380 88 q 406 97 423 111 z"},"_":{"x_min":0,"x_max":534,"ha":534,"o":"m 474 -100 q 426 -99 368 -98 q 311 -96 264 -96 q 216 -96 159 -97 q 102 -98 54 -100 l 59 -8 q 107 -10 164 -11 q 221 -12 269 -12 q 293 -12 320 -12 q 346 -12 374 -12 q 402 -11 429 -10 q 456 -9 480 -8 z"},"v":{"x_min":0,"x_max":508,"ha":508,"o":"m 494 512 q 456 370 411 246 q 366 123 311 0 l 190 -12 q 138 111 96 234 q 53 358 17 500 l 146 512 q 167 409 192 309 q 218 209 250 113 q 285 208 314 302 q 342 397 365 500 z"},"O":{"x_min":0,"x_max":686,"ha":686,"o":"m 345 622 q 267 622 222 551 q 176 480 176 347 q 176 215 214 146 q 253 76 340 76 q 378 76 410 96 q 441 115 464 152 q 486 189 498 241 q 511 293 511 359 q 511 422 504 471 q 496 520 477 554 q 458 587 426 604 q 394 622 345 622 z m 39 344 q 39 425 61 493 q 83 561 124 610 q 166 658 224 685 q 282 712 354 712 q 423 712 478 688 q 532 663 570 618 q 607 573 627 509 q 647 445 647 367 q 647 285 624 216 q 602 146 561 96 q 520 45 462 16 q 404 -12 333 -12 q 264 -12 210 14 q 155 41 117 88 q 79 136 59 201 q 39 266 39 344 z"},"(":{"x_min":0,"x_max":300,"ha":300,"o":"m 247 -112 q 222 -98 186 -72 q 149 -46 116 4 q 82 55 58 137 q 35 219 35 344 q 35 469 58 552 q 82 634 116 686 q 149 737 186 765 q 222 793 247 810 l 286 764 q 264 749 242 722 q 220 694 202 646 q 184 597 173 524 q 162 452 162 349 q 162 243 174 170 q 185 97 203 49 q 221 1 243 -26 q 265 -53 286 -67 z"},"C":{"x_min":0,"x_max":603,"ha":603,"o":"m 42 321 q 42 519 122 616 q 203 712 350 712 q 395 712 424 706 q 454 700 479 700 q 496 700 513 703 q 530 706 549 711 l 560 457 l 448 444 q 449 459 450 472 q 450 486 450 498 q 450 560 428 594 q 406 628 349 628 q 173 628 173 347 q 173 280 184 233 q 196 186 219 156 q 242 127 276 114 q 311 100 356 100 q 405 100 453 114 q 501 129 546 146 l 546 40 q 501 11 441 0 q 381 -12 325 -12 q 269 -12 218 0 q 166 13 127 50 q 88 86 65 151 q 42 216 42 321 z"},"W":{"x_min":0,"x_max":938,"ha":938,"o":"m 465 550 l 462 494 q 456 438 444 374 q 432 310 417 245 q 402 180 386 117 q 369 54 353 0 l 222 -12 q 190 70 162 154 q 135 237 111 324 q 87 412 65 505 q 43 598 22 700 l 158 712 q 183 563 214 409 q 246 255 284 113 q 302 178 316 244 q 330 311 343 380 q 356 449 368 521 q 380 593 394 670 l 545 682 q 568 541 595 394 q 622 248 656 113 q 694 250 724 394 q 754 538 780 700 l 917 712 q 896 611 874 518 q 853 426 829 339 q 805 252 778 168 q 750 84 717 0 l 586 -12 q 570 43 552 107 q 535 171 520 238 q 504 305 492 370 q 479 436 472 494 l 469 550 z"},"A":{"x_min":0,"x_max":652,"ha":652,"o":"m 12 -12 q 39 89 66 182 q 94 274 124 361 q 154 448 188 532 q 223 616 263 700 l 388 712 q 428 629 462 546 q 496 463 526 376 q 557 288 584 195 q 612 102 639 0 l 503 -12 q 489 41 475 94 q 461 148 447 202 l 200 202 q 186 153 173 103 q 160 53 149 0 z m 326 587 q 268 445 225 294 l 422 294 q 400 369 376 443 q 353 517 326 587 z"},"f":{"x_min":0,"x_max":332,"ha":332,"o":"m 15 492 l 93 496 q 94 514 94 530 q 95 545 97 560 q 102 625 112 661 q 122 697 142 719 q 164 744 198 757 q 231 770 266 770 q 292 770 315 762 q 338 755 363 739 l 352 650 q 329 659 308 664 q 287 668 271 668 q 254 668 242 662 q 231 657 224 644 q 216 631 213 609 q 210 587 210 554 l 210 500 l 318 500 l 309 415 l 210 422 l 210 173 q 210 146 210 124 q 210 102 211 82 q 212 61 212 41 q 213 21 215 0 l 91 0 q 91 85 91 152 q 91 219 91 270 q 91 322 92 360 q 92 399 92 429 l 22 429 z"},"Q":{"x_min":0,"x_max":686,"ha":686,"o":"m 591 -131 q 565 -130 519 -121 q 473 -112 418 -94 q 363 -77 306 -52 q 249 -26 201 9 q 124 64 82 144 q 39 223 39 340 q 39 424 61 492 q 83 561 124 610 q 166 658 224 685 q 282 712 354 712 q 423 712 478 688 q 532 663 570 618 q 607 573 627 510 q 647 446 647 369 q 647 297 630 235 q 613 173 582 124 q 551 76 506 43 q 462 10 407 -3 q 452 -15 498 -20 q 544 -26 595 -26 q 612 -26 628 -26 q 645 -26 663 -24 z m 353 622 q 265 622 221 550 q 177 479 177 342 q 177 214 216 145 q 255 76 335 76 q 415 76 462 149 q 510 222 510 371 q 510 425 502 471 q 495 517 477 550 q 459 584 429 603 q 399 622 353 622 z"},"w":{"x_min":0,"x_max":777,"ha":777,"o":"m 762 512 q 733 370 697 246 q 661 123 615 0 l 494 -12 q 479 28 464 72 q 450 116 436 162 q 422 207 410 253 q 397 299 388 343 q 370 258 342 168 q 314 78 285 0 l 164 -12 q 118 111 82 234 q 45 358 17 500 l 146 512 q 161 411 180 312 q 200 214 224 119 q 254 213 280 306 q 305 399 325 500 l 454 512 q 474 411 499 312 q 524 214 554 119 q 578 213 598 306 q 618 399 633 500 z"},"-":{"x_min":0,"x_max":434,"ha":434,"o":"m 374 201 q 350 202 331 202 q 312 203 294 204 q 276 204 257 204 q 238 205 214 205 q 190 205 171 204 q 152 204 134 204 q 116 203 97 202 q 78 202 54 201 l 59 293 q 83 292 102 291 q 121 290 139 290 q 157 289 176 289 q 195 289 219 289 q 243 289 262 289 q 281 289 299 290 q 317 290 336 291 q 356 292 380 293 z"},"E":{"x_min":0,"x_max":551,"ha":551,"o":"m 469 309 l 209 309 q 209 246 209 194 q 209 143 210 98 l 519 98 l 519 0 l 71 0 q 72 48 74 84 q 75 121 76 160 q 77 200 78 251 q 79 302 79 379 q 79 456 78 538 q 77 619 74 700 l 500 700 l 500 602 l 211 602 q 209 563 209 514 q 209 464 209 401 l 469 401 z"},"s":{"x_min":0,"x_max":396,"ha":396,"o":"m 205 94 q 233 94 245 105 q 257 116 257 136 q 257 149 252 158 q 248 167 238 174 q 229 181 214 188 q 199 194 178 202 q 154 211 130 222 q 105 233 86 250 q 66 267 54 294 q 42 321 42 362 q 42 410 60 440 q 79 469 106 485 q 133 501 164 506 q 195 512 221 512 q 250 512 284 507 q 318 502 341 493 l 341 387 q 324 393 305 398 q 286 402 268 405 q 250 408 234 410 q 218 411 208 411 q 144 411 144 367 q 144 336 172 320 q 200 305 241 290 q 266 281 288 270 q 310 258 326 240 q 343 223 352 197 q 362 171 362 134 q 362 58 320 23 q 278 -12 211 -12 q 175 -12 132 -2 q 89 8 47 29 l 43 142 q 56 133 76 124 q 96 116 119 110 q 142 103 164 98 q 187 94 205 94 z"},">":{"x_min":0,"x_max":453,"ha":453,"o":"m 198 540 q 216 522 236 504 q 255 487 282 464 q 308 441 343 408 q 378 375 427 326 q 377 273 342 238 q 307 204 280 180 q 254 156 234 138 q 214 119 195 100 l 47 100 q 74 123 102 146 q 130 169 162 196 q 193 222 228 254 q 264 285 305 324 q 250 375 212 408 q 175 441 146 464 q 118 488 96 505 q 73 522 48 540 z"},"l":{"x_min":0,"x_max":252,"ha":252,"o":"m 197 770 q 194 735 192 698 q 191 661 190 616 q 190 572 190 517 q 189 462 189 391 q 189 325 189 272 q 189 218 190 172 q 190 126 190 84 q 191 43 192 0 l 57 0 q 58 52 60 92 q 61 132 62 176 q 63 219 64 274 q 65 330 65 414 q 65 499 64 584 q 63 670 60 760 z"},"8":{"x_min":0,"x_max":547,"ha":547,"o":"m 480 534 q 480 472 453 430 q 426 388 371 371 q 405 366 430 349 q 456 332 472 308 q 489 283 498 252 q 506 220 506 185 q 506 91 444 40 q 383 -12 278 -12 q 227 -12 184 1 q 140 14 108 40 q 77 65 59 102 q 41 140 41 190 q 41 223 48 254 q 56 284 72 308 q 89 333 114 350 q 139 366 175 371 q 146 380 126 396 q 105 413 92 434 q 79 455 73 480 q 67 505 67 531 q 67 562 77 594 q 87 627 111 652 q 135 678 176 694 q 216 711 278 711 q 339 711 378 694 q 418 678 440 652 q 463 627 472 596 q 480 564 480 534 z m 373 192 q 373 234 364 260 q 355 286 341 300 q 327 315 309 320 q 291 326 273 326 q 254 326 236 320 q 218 315 204 300 q 191 286 182 260 q 174 234 174 194 q 174 159 181 135 q 188 111 202 96 q 215 82 234 76 q 252 70 275 70 q 296 70 314 76 q 332 81 345 94 q 358 108 366 132 q 373 155 373 192 z m 357 514 q 357 563 338 594 q 318 624 273 624 q 228 624 209 594 q 190 563 190 515 q 190 465 209 438 q 228 412 273 412 q 318 412 338 439 q 357 466 357 514 z"},"\\":{"x_min":0,"x_max":520,"ha":520,"o":"m 401 -122 q 312 84 217 288 q 122 492 22 700 l 130 690 q 217 486 308 283 q 399 80 497 -124 z"},"e":{"x_min":0,"x_max":466,"ha":466,"o":"m 165 226 q 170 150 196 120 q 222 89 275 89 q 315 89 350 101 q 386 113 409 123 l 409 40 q 377 11 329 0 q 281 -12 236 -12 q 199 -12 163 -3 q 127 6 98 32 q 70 57 52 102 q 35 148 35 222 q 35 295 53 350 q 71 404 102 440 q 134 476 176 494 q 219 512 269 512 q 320 512 352 494 q 385 477 404 450 q 422 423 428 390 q 435 357 435 326 q 435 294 430 268 q 426 242 419 226 z m 251 439 q 212 439 190 406 q 169 372 165 300 l 330 300 q 330 304 330 310 q 331 316 331 321 q 331 337 328 358 q 325 378 316 396 q 307 414 292 426 q 276 439 251 439 z"},"b":{"x_min":0,"x_max":518,"ha":518,"o":"m 199 770 q 196 738 194 704 q 193 669 192 628 q 192 588 192 539 q 191 490 191 430 q 221 460 262 486 q 303 512 353 512 q 377 512 400 503 q 424 494 442 470 q 460 446 471 405 q 482 364 482 300 q 482 222 466 164 q 451 105 422 66 q 394 27 355 8 q 316 -12 268 -12 q 224 -12 193 6 q 162 23 138 52 l 101 0 l 48 0 q 60 46 64 146 q 67 246 67 414 q 67 499 66 584 q 65 670 62 760 z m 285 397 q 256 397 232 388 q 209 380 191 368 q 191 284 191 221 q 191 158 192 103 q 217 58 262 58 q 306 58 330 111 q 353 164 353 268 q 353 309 348 334 q 343 359 334 373 q 325 387 312 392 q 300 397 285 397 z"},"%":{"x_min":0,"x_max":817,"ha":817,"o":"m 615 700 q 577 622 548 562 q 520 501 496 449 q 471 397 450 350 q 428 303 405 251 q 382 199 356 138 q 329 78 296 0 l 190 -10 q 227 67 256 128 q 285 188 309 240 q 333 292 354 340 q 376 388 399 440 q 422 492 448 552 q 474 612 507 690 z m 185 653 q 156 653 138 626 q 120 598 120 529 q 120 461 136 434 q 151 408 182 408 q 210 408 229 437 q 248 466 248 535 q 248 601 234 627 q 220 653 185 653 z m 29 528 q 29 621 72 666 q 116 712 189 712 q 260 712 299 671 q 338 630 338 539 q 338 445 294 398 q 251 350 179 350 q 109 350 69 394 q 29 438 29 528 z m 635 291 q 606 291 588 264 q 570 236 570 167 q 570 99 586 72 q 601 46 632 46 q 660 46 679 75 q 698 104 698 173 q 698 239 684 265 q 670 291 635 291 z m 479 166 q 479 259 522 304 q 566 350 639 350 q 710 350 749 309 q 788 268 788 177 q 788 83 744 36 q 701 -12 629 -12 q 559 -12 519 32 q 479 76 479 166 z"},"m":{"x_min":0,"x_max":814,"ha":814,"o":"m 639 -12 q 632 11 630 38 q 629 65 629 85 q 629 113 630 142 q 632 172 634 200 q 635 227 636 252 q 638 276 638 294 q 638 353 618 375 q 599 397 564 397 q 538 397 517 389 q 496 381 479 369 q 482 349 482 326 q 482 312 482 285 q 481 258 480 228 q 479 197 478 169 q 478 141 478 126 q 478 93 482 62 q 486 32 498 12 l 357 -12 q 350 11 348 38 q 347 65 347 85 q 347 113 348 142 q 350 172 352 200 q 353 227 354 252 q 356 276 356 294 q 356 353 336 375 q 317 397 282 397 q 256 397 234 388 q 213 380 196 368 q 198 348 198 325 q 198 302 198 271 q 198 225 198 188 q 198 151 198 119 q 199 87 200 58 q 200 30 201 0 l 65 0 q 66 24 67 54 q 68 84 70 118 q 71 151 72 186 q 73 222 73 255 q 73 294 71 318 q 69 343 63 362 q 57 380 47 396 q 37 411 21 431 l 138 512 q 158 483 170 462 q 182 440 188 417 q 203 433 221 450 q 239 467 259 481 q 279 495 302 504 q 325 512 351 512 q 388 512 421 491 q 454 470 470 417 q 485 433 503 450 q 521 467 541 481 q 561 495 584 504 q 607 512 633 512 q 658 512 682 503 q 705 494 723 473 q 741 452 752 416 q 763 380 763 326 q 763 312 762 285 q 762 258 761 228 q 760 197 760 169 q 759 141 759 126 q 759 93 763 62 q 767 32 779 12 z"},"#":{"x_min":0,"x_max":680,"ha":680,"o":"m 611 188 q 576 189 547 190 q 518 190 491 190 l 468 0 l 368 -10 l 404 192 l 321 192 q 295 192 273 192 q 251 192 231 191 l 208 0 l 108 -10 l 144 190 q 118 190 90 190 q 63 189 31 188 l 45 275 q 77 274 104 273 q 132 272 157 272 q 164 313 170 352 q 175 390 181 432 q 152 432 122 432 q 91 431 54 430 l 68 517 q 104 515 134 514 q 163 514 191 514 q 201 589 213 690 l 315 700 q 304 644 296 599 q 288 554 281 513 l 451 513 q 456 551 462 594 q 467 638 473 690 l 575 700 q 564 645 556 600 q 549 555 541 514 q 568 515 595 515 q 622 515 649 517 l 634 430 q 603 430 577 430 q 551 431 527 432 l 502 272 q 530 272 560 273 q 590 274 626 275 z m 242 271 l 417 271 q 424 312 430 352 q 436 391 441 433 q 419 434 396 434 q 372 434 344 434 l 267 434 z"},",":{"x_min":0,"x_max":244,"ha":244,"o":"m 40 50 q 47 82 68 104 q 90 125 120 130 q 198 109 198 44 q 198 -40 89 -163 l 43 -127 q 69 -85 80 -61 q 90 -37 90 -14 q 90 36 40 50 z"},"n":{"x_min":0,"x_max":547,"ha":547,"o":"m 138 512 q 158 483 170 461 q 182 439 188 416 q 203 432 222 450 q 241 467 262 480 q 284 494 309 503 q 334 512 361 512 q 386 512 410 503 q 433 494 451 473 q 469 452 480 416 q 491 380 491 326 q 491 312 490 285 q 490 258 489 228 q 488 197 488 169 q 487 141 487 126 q 487 93 492 62 q 496 32 507 12 l 368 -12 q 361 11 360 38 q 358 65 358 85 q 358 113 360 142 q 361 172 362 200 q 364 227 366 252 q 367 276 367 294 q 367 353 347 375 q 327 397 292 397 q 263 397 238 388 q 214 379 195 366 q 197 347 197 324 q 197 301 197 271 q 197 225 197 188 q 197 151 198 119 q 198 87 198 58 q 199 30 200 0 l 65 0 q 66 24 67 54 q 68 84 70 118 q 71 151 72 186 q 73 222 73 255 q 73 294 71 318 q 69 343 63 362 q 57 380 47 396 q 37 411 21 431 z"},"h":{"x_min":0,"x_max":533,"ha":533,"o":"m 197 770 q 194 737 192 702 q 191 668 190 627 q 190 586 190 537 q 189 488 189 426 q 204 442 222 458 q 240 473 260 485 q 281 497 304 504 q 327 512 352 512 q 377 512 400 503 q 424 494 442 473 q 460 452 471 416 q 482 380 482 326 q 482 312 482 285 q 481 258 480 228 q 479 197 478 169 q 478 141 478 126 q 478 93 482 62 q 487 32 498 12 l 359 -12 q 352 11 350 38 q 349 65 349 85 q 349 113 350 142 q 352 172 354 200 q 355 227 356 252 q 358 276 358 294 q 358 353 338 375 q 318 397 283 397 q 254 397 230 388 q 207 378 189 364 q 189 305 189 256 q 189 207 190 164 q 190 120 190 80 q 191 40 192 0 l 57 0 q 58 52 60 92 q 61 132 62 176 q 63 219 64 274 q 65 330 65 414 q 65 499 64 584 q 63 670 60 760 z"},"z":{"x_min":0,"x_max":428,"ha":428,"o":"m 393 454 q 378 431 354 392 q 329 353 302 304 q 274 256 246 203 q 218 150 194 100 l 398 107 l 391 -12 q 378 -9 347 -7 q 316 -5 278 -4 q 239 -2 199 -1 q 159 0 129 0 l 37 0 l 26 58 q 45 85 70 124 q 96 162 124 207 q 151 252 178 302 q 205 352 229 401 l 46 394 l 34 512 q 53 509 94 507 q 136 505 184 504 q 232 502 278 501 q 324 500 352 500 l 385 500 z"},"B":{"x_min":0,"x_max":596,"ha":596,"o":"m 74 690 q 95 694 120 698 q 145 702 172 705 q 198 708 225 710 q 252 711 277 711 q 352 711 401 696 q 450 680 478 656 q 507 631 518 600 q 529 570 529 540 q 529 513 521 486 q 513 459 496 436 q 479 413 452 396 q 425 380 388 374 q 434 370 468 354 q 501 338 523 314 q 545 290 555 260 q 565 230 565 197 q 565 157 550 120 q 534 82 497 53 q 460 24 398 6 q 337 -11 246 -11 q 228 -11 206 -10 q 183 -10 160 -8 q 136 -7 113 -5 q 90 -3 71 0 q 73 48 74 84 q 76 120 77 160 q 78 201 78 252 q 79 304 79 384 q 79 456 78 532 q 77 609 74 690 z m 209 321 q 209 249 209 192 q 209 134 210 83 q 229 77 248 74 q 268 70 288 70 q 351 70 390 107 q 430 144 430 211 q 430 237 422 259 q 415 281 398 297 q 382 313 356 322 q 330 331 292 331 q 253 331 209 321 z m 211 610 q 209 569 209 520 q 209 470 209 404 q 224 402 238 401 q 251 400 264 400 q 338 400 371 431 q 404 462 404 514 q 404 535 398 554 q 393 574 380 589 q 367 604 346 613 q 324 622 291 622 q 271 622 252 618 q 232 615 211 610 z"},"K":{"x_min":0,"x_max":604,"ha":604,"o":"m 217 700 q 214 671 212 642 q 211 614 210 577 q 210 540 210 492 q 209 443 209 375 l 216 376 q 244 410 274 450 q 305 491 336 534 q 366 578 396 623 q 426 668 454 712 l 584 700 q 574 688 550 656 q 527 625 495 582 q 463 538 426 486 q 388 434 350 380 q 407 375 447 357 q 487 339 512 304 q 537 268 548 215 q 560 162 560 88 q 560 48 557 0 l 418 -12 q 422 26 424 55 q 425 84 425 105 q 425 205 389 252 q 353 299 277 299 q 249 299 209 291 q 209 195 210 128 q 210 60 212 0 l 71 0 q 74 68 76 114 q 77 160 78 198 q 78 236 78 274 q 79 311 79 364 q 79 416 79 460 q 79 504 78 544 q 77 583 76 618 q 75 654 74 690 z"},"R":{"x_min":0,"x_max":612,"ha":612,"o":"m 74 690 q 119 698 176 704 q 232 711 285 711 q 370 711 424 693 q 479 675 510 646 q 541 618 552 582 q 564 547 564 512 q 564 449 536 402 q 507 356 455 329 q 486 314 506 294 q 527 275 539 247 q 551 219 556 180 q 560 142 560 91 q 560 50 557 0 l 418 -12 q 421 21 423 51 q 425 81 425 108 q 425 152 418 185 q 411 218 393 240 q 375 263 344 274 q 314 285 266 285 q 255 285 240 284 q 225 284 209 282 q 209 199 210 132 q 210 65 212 0 l 71 0 q 73 48 74 84 q 76 121 77 160 q 78 200 78 249 q 79 298 79 371 q 79 455 78 532 q 77 609 74 690 z m 298 622 q 278 622 256 618 q 234 615 211 609 q 209 567 209 514 q 209 462 209 388 l 209 375 q 237 369 274 369 q 349 369 390 402 q 432 434 432 497 q 432 555 396 588 q 361 622 298 622 z"},"T":{"x_min":0,"x_max":550,"ha":550,"o":"m 540 602 l 342 602 q 340 555 340 496 q 340 438 340 356 q 340 296 340 248 q 340 199 340 157 q 341 115 342 77 q 342 39 343 0 l 202 0 q 203 48 204 84 q 206 121 207 160 q 208 200 209 251 q 210 302 210 379 q 210 435 210 490 q 210 545 208 602 l 10 602 l 10 700 l 540 700 z"},"P":{"x_min":0,"x_max":577,"ha":577,"o":"m 554 501 q 554 444 534 398 q 515 353 478 322 q 442 290 390 273 q 338 256 273 256 q 256 256 240 257 q 225 258 209 260 q 209 183 210 122 q 210 60 212 0 l 71 0 q 73 48 74 84 q 76 121 77 160 q 78 200 78 249 q 79 298 79 371 q 79 455 78 532 q 77 609 74 690 q 96 694 122 698 q 148 702 176 705 q 203 708 230 710 q 258 711 284 711 q 367 711 420 692 q 472 674 502 644 q 532 615 543 578 q 554 540 554 501 z m 209 347 q 223 344 238 343 q 253 342 269 342 q 344 342 383 378 q 422 415 422 486 q 422 552 390 587 q 357 622 297 622 q 277 622 256 618 q 234 615 211 609 q 209 561 209 501 q 209 441 209 356 z"},"|":{"x_min":0,"x_max":228,"ha":228,"o":"m 165 700 q 162 654 160 608 q 159 563 158 509 q 158 455 158 389 q 157 323 157 236 q 157 158 157 96 q 157 35 158 -18 q 158 -71 158 -120 q 159 -168 160 -220 l 64 -220 q 65 -179 66 -146 q 67 -113 68 -82 q 68 -51 69 -18 q 70 14 70 54 q 71 93 72 143 q 72 193 72 259 q 72 363 71 472 q 70 581 67 690 z"},"t":{"x_min":0,"x_max":345,"ha":345,"o":"m 15 492 q 48 494 69 504 q 90 513 104 532 q 117 550 126 580 q 135 610 144 652 l 237 679 q 228 624 223 582 q 218 540 214 500 l 322 500 l 313 415 l 209 422 q 205 362 204 312 q 202 261 202 225 q 202 184 204 160 q 207 135 212 122 q 218 108 228 104 q 237 99 252 99 q 272 99 291 104 q 310 110 323 118 l 308 14 q 284 1 263 -6 q 242 -12 213 -12 q 180 -12 155 -2 q 130 8 114 32 q 97 55 89 92 q 81 130 81 184 q 81 229 86 294 q 90 359 95 429 l 22 429 z"},"M":{"x_min":0,"x_max":848,"ha":848,"o":"m 777 712 q 772 646 770 572 q 769 497 769 403 q 769 322 770 264 q 770 205 772 160 q 773 114 774 76 q 776 39 779 0 l 645 0 q 646 40 648 80 q 649 120 650 166 q 651 213 652 270 q 652 326 652 399 l 652 474 l 660 537 l 643 474 q 611 356 574 236 q 536 116 489 0 l 364 -12 q 312 108 273 234 q 234 361 201 482 l 188 529 l 196 482 l 196 386 q 196 265 198 172 q 200 78 202 0 l 72 0 q 74 48 76 86 q 77 123 78 160 q 78 197 78 239 q 79 281 79 339 q 79 397 79 444 q 79 490 78 532 q 77 573 76 611 q 75 649 74 690 l 249 712 q 284 563 329 414 q 374 266 424 124 q 448 193 470 261 q 493 329 514 400 q 534 470 553 544 q 572 619 589 700 z"},"g":{"x_min":0,"x_max":506,"ha":506,"o":"m 487 4 q 487 -43 461 -82 q 435 -122 390 -150 q 346 -179 288 -195 q 231 -211 168 -211 q 131 -211 100 -205 q 68 -199 46 -186 q 23 -173 10 -153 q -3 -133 -3 -106 q -3 -68 20 -42 q 44 -16 88 10 q 65 18 50 34 q 36 50 36 78 q 36 97 43 114 q 50 131 62 145 q 74 159 89 171 q 104 183 120 193 q 85 215 66 249 q 46 283 46 327 q 46 366 62 400 q 78 434 106 458 q 135 483 175 498 q 215 512 262 512 q 281 512 298 510 q 315 507 331 502 q 337 513 351 530 q 365 548 384 565 q 404 582 429 596 q 454 609 481 612 l 486 497 q 458 497 431 492 q 404 488 382 480 q 416 458 434 424 q 453 390 453 348 q 453 308 436 274 q 420 240 392 216 q 363 191 324 178 q 284 164 238 164 q 198 164 162 175 q 150 158 150 139 q 150 112 172 104 q 194 97 226 97 q 244 97 264 98 q 285 99 305 100 q 325 102 343 103 q 361 104 373 104 q 428 104 458 79 q 487 54 487 4 z m 252 432 q 206 432 182 404 q 157 376 157 334 q 157 290 182 266 q 207 242 247 242 q 272 242 290 251 q 308 260 320 274 q 332 289 338 306 q 343 324 343 342 q 343 380 320 406 q 297 432 252 432 z m 376 -48 q 376 -25 353 -16 q 330 -7 294 -5 q 259 -3 217 -4 q 175 -4 138 0 q 106 -31 106 -59 q 106 -82 136 -98 q 166 -114 225 -114 q 255 -114 282 -110 q 310 -105 331 -96 q 352 -87 364 -75 q 376 -63 376 -48 z"},"j":{"x_min":0,"x_max":249,"ha":249,"o":"m 63 294 q 63 348 62 396 q 61 443 58 500 l 195 500 q 190 454 188 408 q 187 363 187 331 q 187 308 186 265 q 186 222 186 172 q 185 122 184 70 q 182 19 180 -20 q 176 -84 168 -119 q 159 -154 142 -177 q 120 -207 88 -218 q 55 -230 26 -230 q 3 -230 -24 -224 q -52 -218 -69 -210 l -40 -106 q -30 -112 -15 -116 q 0 -119 12 -119 q 38 -119 50 -95 q 63 -71 63 -4 z m 55 663 q 55 691 74 712 q 94 732 128 732 q 157 732 178 715 q 200 698 200 669 q 200 641 180 622 q 159 603 125 603 q 96 603 76 618 q 55 634 55 663 z"},"i":{"x_min":0,"x_max":254,"ha":254,"o":"m 198 500 q 195 477 194 456 q 192 435 192 410 q 191 384 190 350 q 190 317 190 271 q 190 225 190 188 q 190 151 190 119 q 191 87 192 58 q 192 30 193 0 l 58 0 q 59 37 60 65 q 62 93 63 124 q 64 156 65 196 q 66 235 66 294 q 66 348 65 396 q 64 443 61 500 z m 58 663 q 58 691 78 712 q 97 732 131 732 q 160 732 182 715 q 203 698 203 669 q 203 641 182 622 q 162 603 128 603 q 99 603 78 618 q 58 634 58 663 z"},"y":{"x_min":0,"x_max":500,"ha":500,"o":"m 485 512 q 456 408 424 314 q 393 219 358 130 q 324 41 286 -45 q 249 -131 208 -217 l 70 -229 q 109 -168 141 -109 q 173 -50 200 8 q 140 121 96 241 q 51 361 16 500 l 145 512 q 156 460 168 406 q 180 351 194 301 q 207 251 222 208 q 238 164 256 133 q 291 233 312 322 q 334 412 356 500 z"},"@":{"x_min":0,"x_max":779,"ha":779,"o":"m 385 86 q 406 86 426 102 q 446 119 446 152 q 446 181 430 193 q 413 205 392 205 q 372 205 354 192 q 337 180 337 146 q 337 116 351 101 q 365 86 385 86 z m 543 -116 q 510 -129 468 -136 q 426 -142 385 -142 q 305 -142 242 -116 q 178 -89 134 -42 q 89 6 65 71 q 41 136 41 214 q 41 295 67 363 q 93 431 140 480 q 188 528 256 555 q 323 582 406 582 q 487 582 550 557 q 614 532 658 488 q 702 443 726 382 q 749 321 749 249 q 749 189 734 145 q 718 101 692 72 q 667 44 634 30 q 600 17 565 17 q 548 17 530 20 q 511 24 496 32 q 480 39 470 51 q 459 63 456 80 q 439 45 408 29 q 378 13 346 13 q 318 13 298 23 q 277 33 263 50 q 249 68 242 90 q 235 113 235 138 q 235 198 271 230 q 307 263 358 263 q 380 263 403 257 q 426 251 446 238 l 446 289 q 446 323 436 338 q 426 354 391 354 q 375 354 344 349 q 314 344 287 327 l 264 402 q 277 409 295 414 q 313 420 333 424 q 353 427 373 429 q 393 431 410 431 q 545 431 545 297 q 545 282 544 257 q 542 232 540 206 q 539 180 538 158 q 537 136 537 128 q 537 106 547 99 q 557 92 569 92 q 588 92 605 98 q 622 105 636 122 q 649 140 657 172 q 665 203 665 253 q 665 308 650 354 q 635 399 604 430 q 572 462 524 480 q 476 497 409 497 q 272 497 202 424 q 131 350 131 210 q 131 147 146 98 q 161 48 193 14 q 225 -21 274 -39 q 324 -57 392 -57 q 457 -57 512 -38 z"},".":{"x_min":0,"x_max":253,"ha":253,"o":"m 47 55 q 47 85 68 108 q 90 130 127 130 q 159 130 182 112 q 206 93 206 61 q 206 30 184 10 q 161 -11 124 -11 q 92 -11 70 6 q 47 23 47 55 z"},"p":{"x_min":0,"x_max":524,"ha":524,"o":"m 488 300 q 488 222 472 164 q 457 105 428 66 q 400 27 361 8 q 322 -12 274 -12 q 251 -12 232 -6 q 213 -1 196 8 q 196 -26 196 -55 q 196 -84 196 -112 q 197 -139 198 -165 q 199 -191 200 -219 l 64 -230 q 67 -169 68 -111 q 70 -53 71 6 q 72 66 72 127 q 72 188 72 255 q 72 294 70 318 q 68 343 62 362 q 56 380 46 396 q 36 411 20 431 l 137 512 q 157 483 168 462 q 180 442 186 420 q 202 436 220 452 q 239 468 261 482 q 283 495 308 504 q 332 512 359 512 q 383 512 406 503 q 430 494 448 470 q 466 446 477 405 q 488 364 488 300 z m 196 106 q 221 58 268 58 q 312 58 336 111 q 359 164 359 268 q 359 309 354 334 q 349 359 340 373 q 331 387 318 392 q 306 397 291 397 q 262 397 238 388 q 213 379 194 366 q 196 347 196 324 q 196 301 196 271 z"},"X":{"x_min":0,"x_max":613,"ha":613,"o":"m 609 700 q 586 669 566 640 q 545 610 520 572 q 495 535 462 484 q 429 434 381 360 q 417 301 447 252 q 477 204 504 161 q 530 118 555 79 q 580 40 606 0 l 457 0 q 434 40 416 74 q 397 108 380 140 q 363 172 346 204 q 328 236 307 274 q 262 197 226 132 q 189 67 153 0 l 4 0 q 34 48 58 86 q 83 124 108 163 q 133 202 162 249 q 192 296 233 362 q 179 446 124 529 q 70 612 9 700 l 160 700 q 175 671 190 644 q 204 617 221 588 q 238 558 259 524 q 280 490 307 447 q 346 510 382 570 q 418 631 458 700 z"},"*":{"x_min":0,"x_max":455,"ha":455,"o":"m 283 760 l 268 629 l 395 682 l 417 581 l 290 553 l 379 444 l 290 392 l 226 506 l 151 389 l 74 458 l 168 560 l 35 598 l 76 692 l 188 637 l 181 770 z"},"Y":{"x_min":0,"x_max":619,"ha":619,"o":"m 604 712 q 580 648 555 589 q 530 530 502 474 q 474 418 443 364 q 412 311 376 258 q 376 182 376 120 q 377 59 379 0 l 238 0 q 239 36 240 65 q 241 94 242 122 q 243 150 244 181 q 245 212 245 251 q 173 353 119 462 q 65 572 17 700 l 153 712 q 170 670 188 625 q 205 580 224 535 q 243 490 264 446 q 285 401 310 361 q 361 439 396 524 q 432 608 467 700 z"},"c":{"x_min":0,"x_max":450,"ha":450,"o":"m 35 217 q 35 292 52 348 q 68 403 98 440 q 128 476 168 494 q 209 512 257 512 q 288 512 308 506 q 329 501 354 501 q 365 501 375 503 q 385 505 405 511 l 416 317 l 318 304 q 319 314 320 322 q 320 331 320 341 q 320 396 300 420 q 281 443 259 443 q 211 443 188 393 q 165 343 165 246 q 165 164 192 128 q 218 92 269 92 q 304 92 338 104 q 373 117 399 128 l 399 40 q 367 11 322 0 q 278 -12 232 -12 q 195 -12 160 -3 q 124 6 96 30 q 69 55 52 100 q 35 145 35 217 z"},"!":{"x_min":0,"x_max":262,"ha":262,"o":"m 205 731 q 201 669 197 597 q 193 525 190 454 q 186 383 184 316 q 181 250 181 198 l 78 198 q 78 314 74 440 q 69 567 62 721 z m 51 54 q 51 84 72 106 q 94 129 131 129 q 163 129 186 110 q 210 92 210 60 q 210 29 188 8 q 165 -12 128 -12 q 96 -12 74 5 q 51 22 51 54 z"},"/":{"x_min":0,"x_max":520,"ha":520,"o":"m 23 -124 q 121 80 212 283 q 303 486 390 690 l 498 700 q 397 492 302 288 q 208 84 119 -122 z"},"[":{"x_min":0,"x_max":329,"ha":329,"o":"m 293 732 l 184 732 q 183 709 182 662 q 182 616 182 562 q 182 508 182 452 q 182 397 182 356 q 182 315 182 261 q 182 207 182 154 q 182 100 182 54 q 183 7 183 -20 l 312 -20 l 312 -98 l 65 -98 q 66 -50 68 2 q 69 53 70 112 q 71 170 72 236 q 73 302 73 379 q 73 417 73 474 q 73 531 72 592 q 71 653 70 711 q 69 769 68 810 l 293 810 z"},"6":{"x_min":0,"x_max":530,"ha":530,"o":"m 277 628 q 223 628 200 574 q 176 521 173 401 q 193 416 217 424 q 241 432 281 432 q 320 432 358 422 q 395 413 424 389 q 454 365 472 324 q 490 283 490 220 q 490 160 474 116 q 457 73 427 44 q 397 16 355 2 q 313 -12 262 -12 q 196 -12 154 11 q 113 34 90 77 q 66 120 57 182 q 48 245 48 324 q 48 427 61 501 q 74 575 102 622 q 129 668 172 690 q 214 712 274 712 q 326 712 363 696 q 400 681 423 654 q 446 627 458 590 q 469 554 472 511 l 361 498 q 357 568 336 598 q 316 628 277 628 z m 264 360 q 199 360 168 324 q 168 267 172 220 q 175 173 186 139 q 197 105 216 86 q 235 68 267 68 q 311 68 336 107 q 360 146 360 229 q 360 267 354 292 q 349 317 337 332 q 325 347 307 354 q 289 360 264 360 z"},"r":{"x_min":0,"x_max":363,"ha":363,"o":"m 138 518 q 159 485 171 460 q 183 436 188 409 q 198 424 213 442 q 228 459 247 474 q 266 490 289 502 q 312 514 338 518 l 347 376 q 298 376 256 368 q 214 359 196 339 q 197 320 197 298 q 197 275 197 247 q 197 215 198 178 q 199 142 200 108 q 202 75 204 46 q 206 17 208 0 l 67 0 q 68 21 69 49 q 70 77 71 107 q 72 137 72 168 q 73 200 73 229 q 73 275 71 304 q 69 334 63 356 q 57 377 47 395 q 37 413 21 437 z"},"2":{"x_min":0,"x_max":481,"ha":481,"o":"m 241 363 q 270 410 292 457 q 313 504 313 546 q 313 583 294 604 q 276 624 244 624 q 203 624 182 590 q 160 556 160 482 l 52 475 q 52 550 70 596 q 89 642 118 668 q 147 694 182 703 q 218 712 251 712 q 303 712 338 696 q 373 681 394 656 q 416 630 425 598 q 434 567 434 536 q 434 489 416 447 q 399 405 367 353 q 337 305 296 244 q 255 183 210 100 q 325 102 439 106 l 429 -7 q 418 -5 386 -4 q 355 -2 314 -2 q 273 -1 228 0 q 184 0 147 0 l 43 0 l 32 68 q 37 75 60 104 q 82 134 112 176 q 143 217 178 266 q 212 316 241 363 z"},"{":{"x_min":0,"x_max":373,"ha":373,"o":"m 100 600 q 100 664 112 706 q 123 749 144 774 q 164 799 190 810 q 217 820 247 820 q 270 820 299 812 q 328 805 353 789 l 342 720 q 319 729 296 736 q 274 742 255 742 q 244 742 236 737 q 228 732 222 718 q 216 705 213 680 q 210 654 210 614 l 210 536 q 210 504 206 479 q 202 454 194 434 q 186 413 174 396 q 163 380 148 365 q 163 350 174 334 q 186 317 194 296 q 202 276 206 251 q 210 226 210 194 l 210 98 q 210 57 213 32 q 216 7 222 -6 q 228 -20 236 -25 q 244 -30 255 -30 q 274 -30 296 -24 q 319 -18 342 -8 l 353 -77 q 328 -93 299 -100 q 270 -108 247 -108 q 217 -108 190 -98 q 164 -87 144 -62 q 123 -37 112 6 q 100 48 100 112 l 100 208 q 100 245 97 268 q 94 292 88 304 q 81 317 70 322 q 60 326 45 326 l 17 326 l 17 404 l 49 404 q 63 404 73 409 q 83 414 89 428 q 95 441 98 464 q 100 486 100 522 z"},"9":{"x_min":0,"x_max":535,"ha":535,"o":"m 258 72 q 311 72 334 128 q 358 184 361 308 q 341 294 317 286 q 293 278 254 278 q 215 278 178 287 q 140 296 110 318 q 81 341 63 380 q 45 420 45 480 q 45 540 62 584 q 78 627 108 656 q 138 684 180 698 q 222 712 273 712 q 339 712 380 689 q 422 666 446 623 q 469 580 478 518 q 487 455 487 376 q 487 272 474 198 q 461 125 434 78 q 406 32 364 10 q 321 -12 261 -12 q 203 -12 164 4 q 125 19 100 46 q 76 73 62 110 q 49 146 43 189 l 154 202 q 159 132 184 102 q 210 72 258 72 z m 271 350 q 336 350 367 386 q 367 441 364 486 q 360 531 349 564 q 338 596 318 614 q 299 632 268 632 q 224 632 200 593 q 175 554 175 471 q 175 401 198 376 q 221 350 271 350 z"}," ":{"x_min":0,"x_max":212,"ha":212,"o":""},"I":{"x_min":0,"x_max":287,"ha":287,"o":"m 217 700 q 214 668 212 634 q 211 601 210 560 q 210 520 210 470 q 209 420 209 356 q 209 296 209 248 q 209 199 210 157 q 210 115 210 77 q 211 39 212 0 l 71 0 q 72 48 74 84 q 75 121 76 160 q 77 200 78 251 q 79 302 79 379 q 79 456 78 532 q 77 609 74 690 z"},"H":{"x_min":0,"x_max":711,"ha":711,"o":"m 641 700 q 638 668 636 634 q 635 601 634 560 q 634 520 634 470 q 633 420 633 356 q 633 296 633 248 q 633 199 634 157 q 634 115 634 77 q 635 39 636 0 l 495 0 q 496 42 497 74 q 498 107 500 141 q 501 175 502 214 q 503 253 503 309 l 209 309 q 209 261 209 220 q 209 178 210 140 q 210 103 210 68 q 211 34 212 0 l 71 0 q 72 48 74 84 q 75 121 76 160 q 77 200 78 251 q 79 302 79 379 q 79 456 78 532 q 77 609 74 690 l 217 700 q 214 671 212 640 q 211 610 210 574 q 210 539 210 496 q 209 454 209 401 l 503 401 q 503 472 502 544 q 500 615 498 690 z"},"4":{"x_min":0,"x_max":536,"ha":536,"o":"m 302 0 q 303 54 304 95 q 306 136 308 181 l 30 181 l 21 267 q 84 368 138 478 q 192 588 240 689 l 438 710 q 435 678 434 642 q 432 605 432 556 q 431 506 430 438 q 430 371 430 277 l 505 277 l 489 181 l 430 181 q 430 130 430 88 q 431 45 433 0 z m 310 277 q 310 337 310 384 q 310 430 310 469 q 309 508 308 542 q 308 575 307 607 q 260 529 217 447 q 174 365 132 277 z"},"~":{"x_min":0,"x_max":511,"ha":511,"o":"m 457 285 q 401 178 342 178 q 316 178 293 186 q 270 195 249 204 q 228 214 208 222 q 188 231 169 231 q 133 231 108 182 l 54 214 q 110 321 169 321 q 195 321 218 312 q 241 304 262 294 q 283 285 303 276 q 323 268 342 268 q 378 268 403 317 z"},"D":{"x_min":0,"x_max":671,"ha":671,"o":"m 74 690 q 114 698 172 705 q 231 712 301 712 q 380 712 442 688 q 503 663 546 618 q 589 573 612 509 q 634 445 634 367 q 634 285 608 216 q 583 146 536 96 q 490 45 425 16 q 360 -12 280 -12 q 211 -12 158 -8 q 104 -5 71 0 q 72 48 74 84 q 75 121 76 160 q 77 200 78 251 q 79 302 79 379 q 79 456 78 532 q 77 609 74 690 z m 287 622 q 270 622 250 618 q 231 615 211 610 q 209 562 209 502 q 209 442 209 356 q 209 267 209 202 q 209 137 210 80 q 231 70 256 70 q 307 70 352 86 q 396 102 429 137 q 462 172 481 226 q 500 281 500 359 q 500 435 486 486 q 471 536 443 566 q 415 597 376 610 q 336 622 287 622 z"},"^":{"x_min":0,"x_max":432,"ha":432,"o":"m 143 414 q 154 412 176 410 q 198 407 216 407 q 234 407 256 410 q 278 412 289 414 l 388 197 l 319 185 l 216 348 l 113 185 l 44 197 z"},"0":{"x_min":0,"x_max":604,"ha":604,"o":"m 304 624 q 275 624 252 610 q 228 595 211 562 q 194 530 184 477 q 175 424 175 347 q 175 270 182 218 q 190 166 206 134 q 221 102 244 88 q 268 74 299 74 q 327 74 351 90 q 375 105 393 140 q 411 174 421 228 q 431 282 431 359 q 431 434 424 484 q 418 535 403 566 q 388 597 364 610 q 339 624 304 624 z m 43 344 q 43 437 62 506 q 81 575 116 620 q 151 666 201 689 q 251 712 313 712 q 431 712 496 629 q 561 546 561 367 q 561 274 542 203 q 522 132 487 84 q 452 36 402 12 q 353 -12 292 -12 q 176 -12 110 77 q 43 166 43 344 z"},"F":{"x_min":0,"x_max":524,"ha":524,"o":"m 457 299 l 209 299 q 209 207 210 136 q 210 66 212 0 l 71 0 q 72 48 74 84 q 75 121 76 160 q 77 200 78 251 q 79 302 79 379 q 79 456 78 538 q 77 619 74 700 l 499 700 l 499 602 l 211 602 q 209 560 209 509 q 209 458 209 391 l 457 391 z"},"`":{"x_min":0,"x_max":284,"ha":284,"o":"m 122 760 l 201 593 l 132 581 l 0 748 z"},"k":{"x_min":0,"x_max":519,"ha":519,"o":"m 197 770 q 194 735 192 698 q 191 661 190 616 q 190 572 190 517 q 189 462 189 391 l 189 308 q 243 368 285 416 q 327 464 369 512 l 505 500 q 482 479 461 460 q 440 442 416 420 q 391 397 362 368 q 332 340 293 299 q 377 295 426 255 q 476 215 476 127 q 476 101 472 68 q 469 34 467 0 l 339 -13 q 343 27 346 61 q 350 95 350 123 q 350 177 329 206 q 308 235 249 235 q 220 235 189 229 q 189 165 190 110 q 190 55 192 0 l 57 0 q 58 52 60 92 q 61 131 62 175 q 63 219 64 276 q 65 334 65 421 q 65 499 64 584 q 63 670 60 760 z"},"u":{"x_min":0,"x_max":534,"ha":534,"o":"m 398 -12 q 378 17 366 38 q 354 59 348 82 q 333 65 316 48 q 299 32 278 18 q 258 5 235 -4 q 212 -12 185 -12 q 160 -12 136 -3 q 113 6 95 27 q 77 48 66 84 q 55 120 55 174 q 55 187 56 214 q 56 242 57 272 q 58 303 58 331 q 59 359 59 374 q 59 407 54 438 q 50 468 39 488 l 176 512 q 183 489 184 462 q 186 435 186 415 q 186 386 184 357 q 183 328 182 300 q 180 273 178 248 q 177 224 177 206 q 177 147 197 125 q 217 103 252 103 q 281 103 302 113 q 323 123 340 137 q 339 155 339 178 q 339 200 339 229 q 339 275 339 312 q 339 349 338 381 q 338 413 338 442 q 337 470 336 500 l 471 500 q 470 476 469 446 q 468 416 466 382 q 465 349 464 314 q 463 278 463 245 q 463 206 465 182 q 467 157 473 138 q 479 120 489 104 q 499 89 515 69 z"},"]":{"x_min":0,"x_max":329,"ha":329,"o":"m 36 810 l 261 810 q 259 769 258 711 q 258 653 257 592 q 256 531 256 474 q 256 417 256 379 q 256 302 257 236 q 258 170 259 112 q 260 53 262 2 q 263 -50 264 -98 l 17 -98 l 17 -20 l 146 -20 q 146 7 146 54 q 147 100 147 154 q 147 207 147 261 q 147 315 147 356 q 147 397 147 452 q 147 508 147 562 q 147 616 146 662 q 146 709 145 732 l 36 732 z"},"U":{"x_min":0,"x_max":678,"ha":678,"o":"m 201 245 q 201 202 212 172 q 224 141 244 122 q 263 102 288 93 q 313 84 339 84 q 361 84 384 93 q 408 102 428 122 q 448 141 461 171 q 474 201 475 243 q 476 273 476 309 q 477 345 477 402 q 477 474 476 544 q 475 615 472 690 l 615 700 q 612 670 610 638 q 609 607 608 570 q 608 532 608 486 q 607 439 607 379 l 607 249 q 607 187 584 138 q 562 90 524 56 q 487 23 437 6 q 387 -12 332 -12 q 277 -12 229 6 q 181 24 146 58 q 110 91 90 140 q 69 188 69 249 q 69 278 70 314 q 71 351 71 402 q 71 474 70 544 q 69 615 66 690 l 209 700 q 206 670 204 638 q 203 607 202 570 q 201 532 201 486 q 201 439 201 379 z"},"o":{"x_min":0,"x_max":519,"ha":519,"o":"m 261 430 q 214 430 189 380 q 164 331 164 245 q 164 161 184 114 q 205 68 256 68 q 303 68 329 120 q 355 171 355 257 q 355 297 351 329 q 347 361 336 384 q 326 406 308 418 q 289 430 261 430 z m 33 242 q 33 304 50 354 q 67 404 98 439 q 128 474 172 493 q 216 512 270 512 q 372 512 428 447 q 485 382 485 265 q 485 202 468 151 q 451 100 420 64 q 389 27 346 8 q 302 -12 249 -12 q 199 -12 159 6 q 119 24 91 57 q 63 90 48 137 q 33 184 33 242 z"},"N":{"x_min":0,"x_max":716,"ha":716,"o":"m 646 700 q 643 668 642 634 q 640 601 640 560 q 639 520 638 470 q 638 420 638 356 q 638 296 638 248 q 638 199 638 157 q 639 115 640 77 q 640 39 641 0 l 440 -12 q 373 122 310 274 q 248 425 200 580 q 200 561 200 534 q 199 508 199 478 q 199 448 199 416 q 199 385 199 356 q 199 296 200 248 q 201 199 202 157 q 203 115 204 77 q 206 39 207 0 l 71 0 q 72 48 74 84 q 75 121 76 160 q 77 200 78 251 q 79 302 79 379 q 79 456 78 532 q 77 609 74 690 l 295 712 q 326 581 380 425 q 433 269 514 89 q 516 137 517 209 q 518 281 518 379 q 518 456 514 532 q 511 609 508 690 z"},"+":{"x_min":0,"x_max":441,"ha":441,"o":"m 175 140 q 176 184 177 216 q 178 248 179 285 q 142 284 112 283 q 81 282 38 281 l 43 373 q 84 371 114 370 q 144 369 179 369 q 178 408 177 441 q 176 474 175 520 l 267 515 q 265 471 264 438 q 263 406 263 369 q 298 369 330 370 q 361 371 404 373 l 398 281 q 357 282 327 283 q 297 284 263 285 q 263 247 264 214 q 265 180 267 134 z"},"G":{"x_min":0,"x_max":657,"ha":657,"o":"m 614 322 q 611 308 610 293 q 608 278 608 260 q 607 243 606 221 q 606 199 606 171 q 606 113 606 75 q 607 37 609 0 l 563 -12 l 527 48 q 487 22 430 5 q 373 -12 315 -12 q 262 -12 212 1 q 163 14 125 50 q 87 87 64 152 q 41 217 41 321 q 41 519 124 616 q 207 712 362 712 q 386 712 406 710 q 426 708 443 706 q 460 704 476 702 q 492 700 508 700 q 524 700 541 702 q 558 705 578 711 l 589 481 l 478 468 q 479 475 479 482 q 479 488 479 495 q 479 521 474 545 q 469 569 456 588 q 443 606 420 617 q 397 628 362 628 q 172 628 172 349 q 172 282 184 235 q 195 188 218 158 q 240 128 274 114 q 307 100 350 100 q 386 100 418 110 q 451 120 483 137 l 483 237 l 361 231 l 352 322 l 614 322 z"},"q":{"x_min":0,"x_max":508,"ha":508,"o":"m 310 -230 q 312 -201 314 -171 q 315 -141 316 -107 q 316 -73 317 -34 q 318 6 318 54 q 291 28 256 8 q 221 -12 179 -12 q 152 -12 126 -3 q 100 6 80 30 q 60 54 48 95 q 35 136 35 200 q 35 278 52 336 q 68 395 98 434 q 128 473 170 492 q 211 512 261 512 q 293 512 320 497 q 347 482 368 454 l 408 500 l 461 500 q 455 477 452 447 q 448 417 446 374 q 443 330 442 270 q 442 210 442 126 q 442 41 443 -44 q 444 -130 447 -220 z m 249 103 q 269 103 286 110 q 304 116 318 126 l 318 164 q 318 243 318 303 q 318 363 317 415 q 296 442 257 442 q 213 442 190 389 q 166 336 166 232 q 166 191 172 166 q 178 141 189 127 q 200 113 215 108 q 230 103 249 103 z"},"d":{"x_min":0,"x_max":516,"ha":516,"o":"m 408 -12 q 380 14 363 34 q 346 53 337 73 q 322 58 305 43 q 288 28 268 16 q 248 3 226 -4 q 204 -12 179 -12 q 152 -12 126 -3 q 100 6 80 30 q 60 54 48 95 q 35 136 35 200 q 35 278 52 336 q 68 395 98 434 q 128 473 170 492 q 211 512 261 512 q 292 512 319 497 q 318 578 318 640 q 317 702 315 759 l 451 770 q 445 648 444 514 q 443 379 443 245 q 443 206 445 182 q 447 157 453 138 q 459 120 469 104 q 479 89 495 69 z m 249 103 q 271 103 289 110 q 307 118 322 130 q 320 149 320 173 q 319 197 319 229 l 319 413 q 296 442 257 442 q 213 442 190 389 q 166 336 166 232 q 166 191 172 166 q 178 141 189 127 q 200 113 215 108 q 230 103 249 103 z"},"1":{"x_min":0,"x_max":317,"ha":317,"o":"m 23 570 q 56 576 78 587 q 100 598 114 614 q 129 630 137 649 q 145 668 150 690 l 247 700 q 244 668 242 634 q 241 601 240 560 q 240 520 240 470 q 239 420 239 356 q 239 296 239 248 q 239 199 240 157 q 240 115 240 77 q 241 39 242 0 l 112 0 q 115 85 118 170 q 120 254 120 340 q 120 420 117 503 l 30 507 z"},"5":{"x_min":0,"x_max":498,"ha":498,"o":"m 460 217 q 460 151 444 107 q 429 63 401 36 q 373 10 334 -1 q 295 -12 247 -12 q 212 -12 176 -5 q 139 2 109 25 q 79 48 60 90 q 41 133 41 205 l 156 218 q 156 137 178 104 q 201 70 250 70 q 294 70 312 104 q 329 138 329 216 q 329 304 308 343 q 287 382 240 382 q 209 382 192 371 q 175 360 164 346 l 60 340 q 64 391 66 455 q 67 519 67 573 q 67 611 66 642 q 66 672 65 700 l 430 700 l 430 609 l 179 609 q 178 589 177 572 q 176 556 176 538 q 175 519 174 494 q 174 470 174 433 q 190 441 212 446 q 233 452 265 452 q 358 452 409 395 q 460 338 460 217 z"}}}
